<!--?xml version="1.0" encoding="utf-8"?-->
<!-- Generator: Adobe Illustrator 18.1.1, SVG Export Plug-In . SVG Version: 6.00 Build 0)  -->

<svg version="1.1" id="_x32_" xmlns="http://www.w3.org/2000/svg" xmlns:xlink="http://www.w3.org/1999/xlink" x="0px" y="0px" viewBox="0 0 512 512" style="width: 256px; height: 256px; opacity: 1;" xml:space="preserve">
<style type="text/css">
	.st0{fill:#4B4B4B;}
</style>
<g>
	<path class="st0" d="M62.957,398.446h392.082c13.193,0,23.978-10.792,23.978-23.979V98.561c0-13.193-10.785-23.978-23.978-23.978
		H62.957c-13.207,0-23.985,10.785-23.985,23.978v275.906C38.972,387.654,49.75,398.446,62.957,398.446z M70.147,105.751h377.702
		v261.512H70.147V105.751z" style="fill: rgb(64, 64, 64);"></path>
	<path class="st0" d="M0,412.232v5.996c0,10.552,8.63,19.189,19.182,19.189h473.622c10.566,0,19.196-8.638,19.196-19.189v-5.996H0z" style="fill: rgb(64, 64, 64);"></path>
	<path class="st0" d="M228.494,217.024c-8.765,15.185-3.56,34.608,11.625,43.373c15.185,8.758,34.6,3.56,43.372-11.619
		c8.765-15.185,3.56-34.607-11.632-43.372C256.688,196.635,237.266,201.839,228.494,217.024z" style="fill: rgb(64, 64, 64);"></path>
	<path class="st0" d="M231.298,275.667c-7.784-4.485-13.872-10.806-18.052-18.081l-0.021,0.007l-39.466-68.354
		c-23.442,44.086-7.918,99.154,35.667,124.319c9.782,5.65,20.164,9.315,30.68,11.13l24.995-43.287
		C253.899,283.513,241.921,281.804,231.298,275.667z" style="fill: rgb(64, 64, 64);"></path>
	<path class="st0" d="M213.224,208.21c9.118-15.807,25.715-24.65,42.758-24.678v-0.021h78.968
		c-7.818-12.522-18.716-23.37-32.39-31.266c-39.862-23.011-89.64-13.193-118.104,21.04l24.953,43.216
		C210.413,213.669,211.664,210.893,213.224,208.21z" style="fill: rgb(64, 64, 64);"></path>
	<path class="st0" d="M293.479,200.752c13.242,15.475,16.025,38.23,5.282,56.841l-39.474,68.367
		c30.984-1.13,60.712-17.664,77.358-46.494c14.372-24.896,15.933-53.677,6.745-78.714H293.479z" style="fill: rgb(64, 64, 64);"></path>
</g>
</svg>
